<svg width="40" height="48" viewBox="0 0 40 48" fill="none" xmlns="http://www.w3.org/2000/svg">
<g id="favico">
<path id="Subtract" fill-rule="evenodd" clip-rule="evenodd" d="M40 19.963C40 25.3551 37.7537 30.2358 34.1232 33.7647L20 47.5294L5.87679 33.7647C2.24634 30.2358 0 25.3551 0 19.963C0 9.19761 8.95426 0.470581 20 0.470581C31.0457 0.470581 40 9.19761 40 19.963ZM29.4117 19.882C29.4117 24.7551 25.4613 28.7055 20.5882 28.7055C15.7151 28.7055 11.7646 24.7551 11.7646 19.882C11.7646 15.0089 15.7151 11.0585 20.5882 11.0585C25.4613 11.0585 29.4117 15.0089 29.4117 19.882Z" fill="#05887B"/>
<path id="Vector" d="M20.5882 24C18.3141 24 16.4706 22.1565 16.4706 19.8824C16.4706 17.6082 18.3141 15.7647 20.5882 15.7647C22.8623 15.7647 24.7059 17.6082 24.7059 19.8824C24.7059 22.1565 22.8623 24 20.5882 24Z" fill="#C41A68"/>
</g>
</svg>
