<svg width="83" height="89" viewBox="0 0 83 89" fill="none" xmlns="http://www.w3.org/2000/svg">
<g clip-path="url(#clip0_1395_18514)">
<path d="M55.4403 51.4753L46.8548 60.4673L19.2562 40.7976C17.3667 39.4477 17.1918 36.6643 18.8765 34.8999L28.5959 24.7202C30.2914 22.9444 33.0691 23.0018 34.505 24.8268L55.4403 51.4753Z" stroke="#C41A68" stroke-width="2" stroke-miterlimit="10" stroke-linejoin="round"/>
<path d="M18.9326 61.7215L23.7426 79.8278C25.3258 83.7178 30.8029 83.8013 32.9378 79.9801L39.5111 68.1587L18.9326 61.7215Z" stroke="#C41A68" stroke-width="2" stroke-miterlimit="10" stroke-linejoin="round"/>
<path d="M55.4021 23.5247L73.7114 27.4924C77.6704 28.8941 78.0071 34.3615 74.2887 36.6708L62.7838 43.7836L55.4021 23.5247Z" stroke="#C41A68" stroke-width="2" stroke-miterlimit="10" stroke-linejoin="round"/>
<path d="M15.5114 60.6169L39.5112 68.1585L46.8656 60.4558L18.8284 40.4755L13.1956 55.6598C12.4143 57.7463 13.4614 59.9785 15.5114 60.6169Z" stroke="#C41A68" stroke-width="2" stroke-miterlimit="10" stroke-linejoin="round"/>
<path d="M34.1852 24.3918L55.4403 51.4752L62.7947 43.7726L54.1409 20.1584C53.4084 18.1402 51.1302 17.1974 49.082 18.0743L34.1852 24.3918Z" stroke="#C41A68" stroke-width="2" stroke-miterlimit="10" stroke-linejoin="round"/>
</g>
<defs>
<clipPath id="clip0_1395_18514">
<rect width="77.9263" height="46.1803" fill="white" transform="translate(-4.86182 56.3652) rotate(-46.3249)"/>
</clipPath>
</defs>
</svg>
