<svg width="18" height="23" viewBox="0 0 18 23" fill="none" xmlns="http://www.w3.org/2000/svg">
<path d="M15.3554 16.2725C16.9892 14.5478 18 12.1623 18 9.5269C18 4.26534 13.9706 0 9 0C4.02942 0 0 4.26534 0 9.5269C0 12.1623 1.01085 14.5478 2.64456 16.2725L9 23L15.3554 16.2725Z" fill="#05887B"/>
<path d="M9 13C11.2091 13 13 11.2091 13 9C13 6.79086 11.2091 5 9 5C6.79086 5 5 6.79086 5 9C5 11.2091 6.79086 13 9 13Z" fill="white"/>
<path d="M9 11C7.89543 11 7 10.1046 7 9C7 7.89543 7.89543 7 9 7C10.1046 7 11 7.89543 11 9C11 10.1046 10.1046 11 9 11Z" fill="#C41A68"/>
</svg>
