<svg width="40" height="40" viewBox="0 0 40 40" fill="none" xmlns="http://www.w3.org/2000/svg">
<g clip-path="url(#clip0_853_4310)">
<rect width="40" height="40" rx="20" fill="#E4F4F1"/>
<path d="M19.2495 13C21.2629 13 22.8029 13.3667 23.8695 14.1C24.9495 14.8333 25.4895 15.98 25.4895 17.54C25.4895 18.3533 25.3429 19.0533 25.0495 19.64C24.7695 20.2133 24.3562 20.6867 23.8095 21.06C23.2629 21.42 22.5962 21.6867 21.8095 21.86C21.0229 22.0333 20.1229 22.12 19.1095 22.12H17.8495V27H15.3295V13.34C15.9162 13.2067 16.5629 13.12 17.2695 13.08C17.9895 13.0267 18.6495 13 19.2495 13ZM19.4295 15.18C18.7895 15.18 18.2629 15.2 17.8495 15.24V19.96H19.0695C20.2829 19.96 21.2162 19.7933 21.8695 19.46C22.5229 19.1133 22.8495 18.4667 22.8495 17.52C22.8495 17.0667 22.7629 16.6867 22.5895 16.38C22.4162 16.0733 22.1762 15.8333 21.8695 15.66C21.5629 15.4867 21.1962 15.3667 20.7695 15.3C20.3562 15.22 19.9095 15.18 19.4295 15.18Z" fill="#02332E"/>
</g>
<defs>
<clipPath id="clip0_853_4310">
<rect width="40" height="40" rx="20" fill="white"/>
</clipPath>
</defs>
</svg>
