<svg width="102" height="24" viewBox="0 0 102 24" fill="none" xmlns="http://www.w3.org/2000/svg">
<g id="Group">
<g id="Group_2">
<path id="Vector" d="M4.15001 12.9175C4.19151 13.3326 4.31601 13.7062 4.56501 14.0382C4.81401 14.3703 5.14601 14.6193 5.56101 14.8269C5.97602 15.0344 6.51552 15.1174 7.09652 15.1174C7.67752 15.1174 8.17552 15.0759 8.63202 14.9514C9.08852 14.8269 9.46202 14.7023 9.79403 14.5363C10.126 14.3703 10.375 14.1627 10.5825 13.9967L12.284 16.7362C12.035 16.9852 11.703 17.2343 11.2465 17.4833C10.8315 17.7323 10.2505 17.9399 9.50352 18.1059C8.75652 18.2719 7.88502 18.355 6.80602 18.355C5.47801 18.355 4.31601 18.1059 3.27851 17.6078C2.24101 17.1097 1.4525 16.4041 0.871502 15.4495C0.290501 14.4948 0 13.3326 0 11.9214C0 10.7592 0.249001 9.72149 0.747002 8.76683C1.245 7.85367 1.99201 7.10655 2.94651 6.56696C3.90101 6.02736 5.06301 5.73682 6.43252 5.73682C7.71902 5.73682 8.83952 5.98586 9.79403 6.44244C10.7485 6.89901 11.4955 7.60463 11.9935 8.5593C12.4915 9.51396 12.782 10.6762 12.782 12.0459C12.782 12.1289 12.782 12.2534 12.782 12.5025C12.782 12.7515 12.782 12.9175 12.7405 12.959H4.15001V12.9175ZM8.67352 10.5931C8.67352 10.3026 8.59052 9.97053 8.42452 9.67998C8.25852 9.38943 8.05102 9.09888 7.71902 8.93286C7.38702 8.76683 7.01352 8.64231 6.51552 8.64231C6.01752 8.64231 5.60251 8.72532 5.27051 8.93286C4.93851 9.14039 4.68951 9.38943 4.52351 9.67998C4.35751 9.97053 4.23301 10.3026 4.23301 10.6346H8.67352V10.5931Z" fill="#B2D0CD"/>
<path id="Vector_2" d="M24.2362 17.9399V15.9891C24.1532 16.1966 23.9457 16.4456 23.5722 16.8192C23.1987 17.1928 22.7421 17.5248 22.1611 17.8154C21.5801 18.1059 20.9161 18.2719 20.1276 18.2719C18.9656 18.2719 17.9696 17.9814 17.0566 17.4418C16.1851 16.8607 15.5211 16.1136 15.0231 15.1589C14.5251 14.2043 14.3176 13.1666 14.3176 12.0044C14.3176 10.8422 14.5666 9.80451 15.0231 8.84985C15.4796 7.89519 16.1851 7.14806 17.0566 6.56696C17.9281 5.98586 18.9656 5.69531 20.1276 5.69531C20.8746 5.69531 21.5386 5.81983 22.0781 6.06888C22.6592 6.31792 23.1157 6.56696 23.4477 6.89902C23.7797 7.23107 24.0287 7.52162 24.1947 7.81217V6.06888H28.5937V17.9814H24.2362V17.9399ZM18.6751 12.0044C18.6751 12.544 18.7996 13.0421 19.0486 13.4571C19.2976 13.8722 19.6296 14.2043 20.0446 14.4533C20.4596 14.7023 20.9161 14.8269 21.4556 14.8269C21.9951 14.8269 22.4516 14.7023 22.8667 14.4533C23.2817 14.2043 23.6137 13.8722 23.8212 13.4571C24.0702 13.0421 24.1947 12.544 24.1947 12.0044C24.1947 11.4648 24.0702 10.9667 23.8212 10.5516C23.5722 10.1366 23.2817 9.763 22.8667 9.51396C22.4516 9.26492 21.9951 9.1404 21.4556 9.1404C20.9576 9.1404 20.4596 9.26492 20.0446 9.51396C19.6296 9.763 19.2976 10.0951 19.0486 10.5516C18.7996 10.9667 18.6751 11.4648 18.6751 12.0044Z" fill="#B2D0CD"/>
<path id="Vector_3" d="M30.9932 6.02747V1.12964H35.3507V6.02747H38.0067V9.68009H35.3507V13.0007C35.3507 13.4987 35.4337 13.8723 35.5582 14.2044C35.7242 14.4949 35.9732 14.6609 36.3467 14.6609C36.5957 14.6609 36.8447 14.6194 37.0107 14.4949C37.1767 14.3704 37.3012 14.2874 37.3427 14.2459L38.8367 17.4004C38.7537 17.4419 38.5462 17.5664 38.2142 17.7325C37.8822 17.8985 37.4257 18.023 36.8862 18.1475C36.3467 18.272 35.7242 18.3551 35.0602 18.3551C33.8567 18.3551 32.9022 18.023 32.1137 17.3589C31.3252 16.6948 30.9517 15.6571 30.9517 14.2459V9.7216V6.02747H30.9932Z" fill="#B2D0CD"/>
<path id="Vector_4" d="M45.2694 23.9999H40.9119V6.02737H45.3109V7.77067C45.4354 7.52163 45.7259 7.18957 46.0994 6.85751C46.4729 6.52546 46.9709 6.23491 47.5519 6.02737C48.1329 5.81984 48.8384 5.65381 49.5854 5.65381C50.7474 5.65381 51.7434 5.94436 52.5734 6.52546C53.4034 7.10655 54.0259 7.85368 54.4824 8.80834C54.9389 9.76301 55.1464 10.8007 55.1464 11.9629C55.1464 13.1251 54.8974 14.2043 54.4409 15.1174C53.9844 16.0721 53.3204 16.8192 52.4489 17.4003C51.5774 17.9814 50.5814 18.2304 49.4194 18.2304C48.5894 18.2304 47.8839 18.0644 47.3029 17.7739C46.7219 17.4833 46.2654 17.1513 45.9334 16.7777C45.6014 16.4041 45.3939 16.1136 45.3109 15.9476V23.9999H45.2694ZM50.8304 12.0044C50.8304 11.4648 50.7059 10.9667 50.4569 10.5516C50.2079 10.1366 49.8759 9.76301 49.4609 9.51396C49.0459 9.26492 48.5894 9.1404 48.0914 9.1404C47.5519 9.1404 47.0954 9.26492 46.6804 9.51396C46.2654 9.76301 45.9334 10.0951 45.6844 10.5516C45.4354 10.9667 45.3109 11.4648 45.3109 12.0044C45.3109 12.544 45.4354 13.0421 45.6844 13.4571C45.9334 13.8722 46.2654 14.2043 46.6804 14.4533C47.0954 14.7023 47.5934 14.8269 48.0914 14.8269C48.5894 14.8269 49.0459 14.7023 49.4609 14.4533C49.8759 14.2043 50.2079 13.8722 50.4569 13.4571C50.7059 13.0421 50.8304 12.544 50.8304 12.0044Z" fill="#B2D0CD"/>
<g id="Vector_5">
<path d="M71.3872 17.94V6.02746H75.7862V17.94H71.3872Z" fill="#B2D0CD"/>
<path d="M71.8437 4.27522C72.3417 4.77331 72.9227 5.02235 73.6282 5.02235C74.3337 5.02235 74.9147 4.81481 75.3712 4.23371C75.8692 3.73563 76.1182 3.15454 76.1182 2.49042C76.1182 2.03385 76.0352 1.61877 75.7862 1.24521C75.5372 0.871648 75.2467 0.581098 74.8732 0.332056C74.4997 0.124521 74.0847 0 73.6282 0C72.9227 0 72.3417 0.249043 71.8437 0.747128C71.3457 1.24521 71.0967 1.86781 71.0967 2.53193C71.0967 3.19604 71.3457 3.77714 71.8437 4.27522Z" fill="#B2D0CD"/>
</g>
<path id="Vector_6" d="M86.6176 5.65381C87.4476 5.65381 88.2776 5.81984 89.0661 6.15189C89.8546 6.48395 90.5186 7.02354 91.0167 7.77067C91.5147 8.51779 91.8052 9.47246 91.8052 10.6347V17.8984H87.3646V11.3818C87.3646 10.5101 87.1571 9.88753 86.7421 9.47246C86.3271 9.05739 85.7876 8.80834 85.1236 8.80834C84.7086 8.80834 84.2936 8.93286 83.8786 9.1404C83.5051 9.34793 83.1731 9.67999 82.9656 10.0951C82.7166 10.5101 82.5921 10.9667 82.5921 11.5063V17.8984H78.1931V5.98586H82.5921V7.72916C82.7166 7.3971 82.9656 7.10656 83.3391 6.7745C83.7126 6.44244 84.1691 6.1934 84.7501 5.94436C85.3311 5.77833 85.9536 5.65381 86.6176 5.65381Z" fill="#B2D0CD"/>
<path id="Vector_7" d="M93.9219 6.02747V1.12964H98.2794V6.02747H100.935V9.68009H98.2794V13.0007C98.2794 13.4987 98.3624 13.8723 98.4869 14.2044C98.6529 14.4949 98.9019 14.6609 99.2754 14.6609C99.5244 14.6609 99.7734 14.6194 99.9394 14.4949C100.105 14.3704 100.23 14.2874 100.271 14.2459L101.765 17.4004C101.682 17.4419 101.475 17.5664 101.143 17.7325C100.811 17.8985 100.354 18.023 99.8149 18.1475C99.2754 18.272 98.6529 18.3551 97.9889 18.3551C96.7854 18.3551 95.8309 18.023 95.0424 17.3589C94.2539 16.6948 93.8804 15.6571 93.8804 14.2459V9.7216V6.02747H93.9219Z" fill="#B2D0CD"/>
</g>
<path id="Subtract" fill-rule="evenodd" clip-rule="evenodd" d="M70.0429 12.514C70.0429 14.4115 69.2704 16.1291 68.0219 17.371L63.165 22.215L58.3081 17.371C57.0596 16.1291 56.2871 14.4115 56.2871 12.514C56.2871 8.72547 59.3664 5.6543 63.165 5.6543C66.9636 5.6543 70.0429 8.72547 70.0429 12.514ZM66.3144 12.4531C66.3144 14.1925 64.9046 15.6025 63.1655 15.6025C61.4264 15.6025 60.0166 14.1925 60.0166 12.4531C60.0166 10.7137 61.4264 9.30371 63.1655 9.30371C64.9046 9.30371 66.3144 10.7137 66.3144 12.4531Z" fill="#B2D0CD"/>
<path id="Vector_8" d="M63.1651 13.9342C62.3473 13.9342 61.6842 13.2711 61.6842 12.4531C61.6842 11.635 62.3473 10.9719 63.1651 10.9719C63.983 10.9719 64.646 11.635 64.646 12.4531C64.646 13.2711 63.983 13.9342 63.1651 13.9342Z" fill="#B2D0CD"/>
</g>
</svg>
