<svg width="13" height="16" viewBox="0 0 13 16" fill="none" xmlns="http://www.w3.org/2000/svg">
<path d="M6.5 15.3125C7.325 15.3125 8 14.6375 8 13.8125H5C5 14.6375 5.675 15.3125 6.5 15.3125ZM11 10.8125V7.0625C11 4.76 9.7775 2.8325 7.625 2.3225V1.8125C7.625 1.19 7.1225 0.6875 6.5 0.6875C5.8775 0.6875 5.375 1.19 5.375 1.8125V2.3225C3.23 2.8325 2 4.7525 2 7.0625V10.8125L0.5 12.3125V13.0625H12.5V12.3125L11 10.8125ZM9.5 11.5625H3.5V7.0625C3.5 5.2025 4.6325 3.6875 6.5 3.6875C8.3675 3.6875 9.5 5.2025 9.5 7.0625V11.5625Z" fill="#1D1B20"/>
</svg>
