<svg width="14" height="16" viewBox="0 0 14 16" fill="none" xmlns="http://www.w3.org/2000/svg">
<path fill-rule="evenodd" clip-rule="evenodd" d="M12.25 2H11.5V0.5H10V2H4V0.5H2.5V2H1.75C0.9175 2 0.25 2.675 0.25 3.5V14C0.25 14.825 0.9175 15.5 1.75 15.5H12.25C13.075 15.5 13.75 14.825 13.75 14V3.5C13.75 2.675 13.075 2 12.25 2ZM12.25 14H1.75V5.75H12.25V14ZM2.875 8.75C2.875 7.715 3.715 6.875 4.75 6.875C5.785 6.875 6.625 7.715 6.625 8.75C6.625 9.785 5.785 10.625 4.75 10.625C3.715 10.625 2.875 9.785 2.875 8.75Z" fill="#05887B"/>
</svg>
