<svg width="50" height="32" viewBox="0 0 50 32" fill="none" xmlns="http://www.w3.org/2000/svg">
<g clip-path="url(#clip0_509_39885)">
<path d="M31.375 9.25L31.255 9.2725L27.25 10.825L22.75 9.25L18.52 10.675C18.3625 10.7275 18.25 10.8625 18.25 11.035V22.375C18.25 22.585 18.415 22.75 18.625 22.75L18.745 22.7275L22.75 21.175L27.25 22.75L31.48 21.325C31.6375 21.2725 31.75 21.1375 31.75 20.965V9.625C31.75 9.415 31.585 9.25 31.375 9.25ZM23.5 11.1025L26.5 12.1525V20.8975L23.5 19.8475V11.1025ZM19.75 11.845L22 11.0875V19.8625L19.75 20.7325V11.845ZM30.25 20.155L28 20.9125V12.145L30.25 11.275V20.155Z" fill="#05887B"/>
</g>
<rect x="0.5" y="0.5" width="49" height="31" rx="3.5" stroke="#006C60"/>
<defs>
<clipPath id="clip0_509_39885">
<rect width="50" height="32" rx="4" fill="white"/>
</clipPath>
</defs>
</svg>
